<svg width="1440" height="348" viewBox="0 0 1440 348" fill="none" xmlns="http://www.w3.org/2000/svg">
<path d="M-12.8542 347.473L-8.97518 340.288L-16.1598 336.409L-20.0389 343.594L-12.8542 347.473ZM-13.5489 341.655C-41.7532 247.256 -36.3527 176.325 -5.99785 124.403C24.3609 72.475 79.8104 39.3384 152.191 20.8187C296.993 -16.2309 508.977 5.37133 721.016 51.3196C933.01 97.2582 1144.88 167.492 1289.36 227.557C1361.62 257.597 1416.96 285.068 1447.03 305.66C1454.54 310.805 1460.45 315.502 1464.64 319.682C1468.86 323.889 1471.23 327.464 1471.87 330.355C1472.18 331.771 1472.07 332.997 1471.59 334.071C1471.1 335.154 1470.19 336.17 1468.75 337.088C1465.85 338.945 1460.96 340.287 1453.81 340.945L1453.99 342.937C1461.23 342.271 1466.51 340.895 1469.83 338.773C1471.51 337.702 1472.72 336.414 1473.41 334.894C1474.1 333.366 1474.21 331.691 1473.82 329.925C1473.06 326.452 1470.34 322.538 1466.05 318.265C1461.74 313.965 1455.73 309.191 1448.16 304.009C1417.91 283.294 1362.41 255.758 1290.13 225.711C1145.54 165.601 933.558 95.3304 721.44 49.365C509.366 3.40918 296.983 -18.2928 151.695 18.8811C79.0315 37.4732 23.0058 70.8303 -7.72443 123.394C-38.4586 175.964 -43.7609 247.523 -15.4652 342.227L-13.5489 341.655Z" fill="url(#paint0_linear_556_1258)"/>
<defs>
<linearGradient id="paint0_linear_556_1258" x1="431.04" y1="357.832" x2="431.04" y2="385.958" gradientUnits="userSpaceOnUse">
<stop stop-color="#A17CFF"/>
<stop offset="1" stop-color="#563C99"/>
</linearGradient>
</defs>
</svg>
